<?xml version="1.0" encoding="UTF-8"?>
<svg version="1.1" xmlns="http://www.w3.org/2000/svg" width="457" height="101">
<path d="M0 0 C3.39680434 1.61722854 6.14988034 3.32415598 8.625 6.19921875 C8.625 6.85921875 8.625 7.51921875 8.625 8.19921875 C9.285 8.19921875 9.945 8.19921875 10.625 8.19921875 C10.9034375 7.36390625 10.9034375 7.36390625 11.1875 6.51171875 C13.37005422 3.00065327 15.85400454 0.91269433 19.625 -0.80078125 C26.35897279 -2.08054078 31.98726361 -1.02796752 37.74609375 2.66015625 C42.31921228 6.40612028 43.70047876 10.35356155 44.3125 16.13671875 C44.38017578 17.29494141 44.38017578 17.29494141 44.44921875 18.4765625 C44.60031103 21.37812958 44.60031103 21.37812958 45.16796875 24.94140625 C45.75153417 29.47108678 45.5548154 33.84115914 45.25 38.38671875 C45.20617187 39.16724609 45.16234375 39.94777344 45.1171875 40.75195312 C44.87502672 44.71733594 44.41199545 48.26424149 43.625 52.19921875 C37.355 52.19921875 31.085 52.19921875 24.625 52.19921875 C24.645625 50.63171875 24.66625 49.06421875 24.6875 47.44921875 C24.6875 41.50175886 24.46928697 35.5761678 24.1875 29.63671875 C24.14826416 28.7559668 24.10902832 27.87521484 24.06860352 26.96777344 C24.00564087 25.71915527 24.00564087 25.71915527 23.94140625 24.4453125 C23.90474854 23.69950928 23.86809082 22.95370605 23.83032227 22.18530273 C23.67603626 19.99066758 23.67603626 19.99066758 22.625 17.19921875 C18.09359347 16.26540914 18.09359347 16.26540914 13.625 17.19921875 C12.12516915 20.19888045 12.38597945 23.31868836 12.30859375 26.61328125 C12.28781265 27.34292084 12.26703156 28.07256042 12.24562073 28.8243103 C12.18018083 31.15751638 12.12126632 33.49083596 12.0625 35.82421875 C12.01930947 37.4049597 11.97569501 38.98568914 11.93164062 40.56640625 C11.82370631 44.44389572 11.72459245 48.32147005 11.625 52.19921875 C5.355 52.19921875 -0.915 52.19921875 -7.375 52.19921875 C-8.37467358 49.20019802 -8.47794201 47.28292268 -8.4375 44.15625 C-8.42976563 43.16431641 -8.42203125 42.17238281 -8.4140625 41.15039062 C-8.38826387 39.07747092 -8.36222683 37.00455417 -8.3359375 34.93164062 C-8.2684278 26.5160382 -8.2684278 26.5160382 -9.375 18.19921875 C-12.82745824 15.89757993 -14.32238713 15.85431553 -18.375 16.19921875 C-21.24268546 19.06690421 -20.72848145 21.9857418 -20.7890625 25.83203125 C-20.80842865 26.58386688 -20.8277948 27.33570251 -20.8477478 28.11032104 C-20.90759147 30.51483774 -20.95394726 32.91940219 -21 35.32421875 C-21.03817546 36.95314603 -21.07722693 38.58205303 -21.1171875 40.2109375 C-21.2149487 44.20692652 -21.29447621 48.20269609 -21.375 52.19921875 C-27.975 52.19921875 -34.575 52.19921875 -41.375 52.19921875 C-41.375 35.36921875 -41.375 18.53921875 -41.375 1.19921875 C-35.105 0.86921875 -28.835 0.53921875 -22.375 0.19921875 C-22.045 1.18921875 -21.715 2.17921875 -21.375 3.19921875 C-20.281875 2.53921875 -19.18875 1.87921875 -18.0625 1.19921875 C-12.26968857 -1.67155506 -6.15427893 -2.07504471 0 0 Z " fill="#407EF8" transform="translate(190.375,29.80078125)"/>
<path d="M0 0 C1.23965007 0.83887967 2.47004612 1.69172021 3.6875 2.5625 C4.574375 3.18125 5.46125 3.8 6.375 4.4375 C13.57570317 11.05436237 13.57570317 11.05436237 13.77734375 15.578125 C11.98468669 18.84217441 8.70673977 19.5907582 5.375 20.8125 C4.69759766 21.080625 4.02019531 21.34875 3.32226562 21.625 C-0.1270285 22.94672365 -2.5745166 23.5625 -6.3125 23.5625 C-7.83984375 22.1015625 -7.83984375 22.1015625 -9.25 20.1875 C-11.72996408 17.1261977 -13.33536039 15.4147442 -17.3125 14.5625 C-23.18344474 14.02333161 -27.68845953 14.47870316 -32.4375 18.25 C-38.38280923 25.58254805 -38.16783722 33.41622356 -37.3125 42.5625 C-36.17514485 47.47072907 -34.4139505 51.22743347 -30.1875 54.125 C-25.71696881 56.21124789 -21.13195532 56.34446461 -16.3125 55.5625 C-11.42903034 53.16683564 -8.57675765 49.78683343 -5.3125 45.5625 C-0.96578707 46.97617259 3.3010639 48.53510641 7.5625 50.1875 C8.71492188 50.63351563 9.86734375 51.07953125 11.0546875 51.5390625 C11.92351562 51.87679687 12.79234375 52.21453125 13.6875 52.5625 C13.6875 57.40751445 12.06026509 59.07585785 8.9375 62.4375 C8.44451416 62.96835205 7.95152832 63.4992041 7.44360352 64.04614258 C-0.06717285 71.7581533 -8.60402724 75.38866116 -19.3125 75.5625 C-20.0653125 75.65789062 -20.818125 75.75328125 -21.59375 75.8515625 C-30.94520987 76.69319389 -40.490503 72.03749041 -47.94140625 66.66796875 C-56.11972442 59.04832127 -59.85592134 48.9655969 -60.53125 38.015625 C-60.8492912 24.81691526 -58.34982064 15.15256039 -49.2734375 5.36328125 C-44.1576592 0.47346489 -39.06397011 -2.37357909 -32.3125 -4.4375 C-31.69246094 -4.62957031 -31.07242188 -4.82164062 -30.43359375 -5.01953125 C-19.85918695 -7.10325414 -9.18797541 -5.54358293 0 0 Z " fill="#3F7EF7" transform="translate(63.3125,9.4375)"/>
<path d="M0 0 C5.94 0 11.88 0 18 0 C18.33 15.18 18.66 30.36 19 46 C23.95 41.05 28.9 36.1 34 31 C39.55774085 29.8258294 42.15591467 29.44019841 47.4375 30.0625 C49.12456055 30.16401367 49.12456055 30.16401367 50.84570312 30.26757812 C53.57734615 30.44193832 56.28157632 30.68540497 59 31 C55.84918206 34.79966033 52.66007076 38.40552772 49.09765625 41.82421875 C48.10475586 42.77844727 48.10475586 42.77844727 47.09179688 43.75195312 C45.7187408 45.06157638 44.33828535 46.36347834 42.95117188 47.65820312 C41.97180664 48.60663086 41.97180664 48.60663086 40.97265625 49.57421875 C40.37718994 50.13713623 39.78172363 50.70005371 39.16821289 51.2800293 C37.79685041 52.92657875 37.79685041 52.92657875 38.10253906 54.97485352 C39.1884767 57.42530311 40.51126485 58.9124191 42.38671875 60.828125 C43.07830078 61.54613281 43.76988281 62.26414063 44.48242188 63.00390625 C45.21009766 63.74511719 45.93777344 64.48632812 46.6875 65.25 C51.88633553 70.57655943 56.69676271 75.91636136 61 82 C56.81344935 82.23355931 52.62858126 82.37482637 48.4375 82.5 C46.66536133 82.60054687 46.66536133 82.60054687 44.85742188 82.703125 C36.20357849 82.89704866 36.20357849 82.89704866 32.69262695 80.28027344 C30.93893878 78.26779168 29.46896667 76.22462136 28 74 C26.35259924 72.3142876 24.68933922 70.6436814 23 69 C21.66545179 67.66788266 20.33193056 66.33473463 19 65 C19.01160156 66.05960937 19.02320313 67.11921875 19.03515625 68.2109375 C19.04453476 69.59895658 19.05363489 70.98697755 19.0625 72.375 C19.07087891 73.07367188 19.07925781 73.77234375 19.08789062 74.4921875 C19.11328125 79.7734375 19.11328125 79.7734375 18 82 C15.02111874 82.1938211 12.04209754 82.38035102 9.0625 82.5625 C8.21236328 82.61857422 7.36222656 82.67464844 6.48632812 82.73242188 C5.67744141 82.78076172 4.86855469 82.82910156 4.03515625 82.87890625 C2.91185913 82.94960327 2.91185913 82.94960327 1.76586914 83.02172852 C0 83 0 83 -1 82 C-1.10034055 79.51573333 -1.13617942 77.05925048 -1.12939453 74.57446289 C-1.13114685 73.7972438 -1.13289917 73.02002472 -1.13470459 72.21925354 C-1.13912402 69.63703206 -1.13618452 67.05487849 -1.1328125 64.47265625 C-1.13348558 62.68525682 -1.13445564 60.89785749 -1.13571167 59.11045837 C-1.13718882 55.35854219 -1.13503379 51.60664976 -1.13037109 47.85473633 C-1.1246779 43.03799323 -1.1279501 38.2213059 -1.13394356 33.40456486 C-1.13755221 29.71149778 -1.13640911 26.01844398 -1.13381577 22.32537651 C-1.13314713 20.54910717 -1.13397273 18.77283663 -1.13629532 16.99656868 C-1.13882636 14.51599039 -1.13497465 12.03550313 -1.12939453 9.55493164 C-1.13141876 8.81563416 -1.13344299 8.07633667 -1.13552856 7.31463623 C-1.1142635 2.228527 -1.1142635 2.228527 0 0 Z " fill="#3F7EF7" transform="translate(383,0)"/>
<path d="M0 0 C0.66 -0.66 1.32 -1.32 2 -2 C8.27 -2 14.54 -2 21 -2 C21 15.16 21 32.32 21 50 C14.73 50 8.46 50 2 50 C2 49.34 2 48.68 2 48 C1.14277344 48.37253906 0.28554687 48.74507812 -0.59765625 49.12890625 C-12.04904433 53.86696648 -12.04904433 53.86696648 -18 52 C-18.94746094 51.76603516 -18.94746094 51.76603516 -19.9140625 51.52734375 C-26.78505754 49.5244089 -31.69093957 44.81959852 -35.35546875 38.7578125 C-39.33544605 30.45302232 -39.86516735 22.78120734 -37 14 C-33.35016071 5.63989515 -28.31806479 0.75876513 -19.99609375 -2.875 C-13.20431284 -5.07032312 -6.14482117 -3.32609586 0 0 Z M-16 17 C-18.47092491 20.70638736 -18.55407837 23.70169504 -18 28 C-16.36312815 31.58552881 -15.31027417 32.79315055 -12 35 C-7.82023765 35.30398272 -4.50625459 35.46736434 -1 33 C1.19389529 29.70915707 1.69354318 27.90732442 2 24 C0.66304394 18.31793673 -1.26316664 16.1578889 -6 13 C-10.76951495 13 -12.27200004 14.16347829 -16 17 Z " fill="#3F7CF4" transform="translate(119,32)"/>
<path d="M0 0 C1.625 0.828125 1.625 0.828125 3.875 2.328125 C3.875 2.988125 3.875 3.648125 3.875 4.328125 C4.473125 4.555 5.07125 4.781875 5.6875 5.015625 C9.06464222 7.04191033 10.46340015 9.75493781 11.44873047 13.52099609 C11.97698434 16.99972637 12.01815755 20.42065764 12.0078125 23.9296875 C12.00876923 24.64796722 12.00972595 25.36624695 12.01071167 26.10629272 C12.01138946 27.61741219 12.00956326 29.12853463 12.00537109 30.63964844 C12.00000136 32.95254018 12.0053377 35.26523913 12.01171875 37.578125 C12.0110582 39.04947959 12.00977753 40.52083407 12.0078125 41.9921875 C12.00983673 42.68285309 12.01186096 43.37351868 12.01394653 44.08511353 C11.99912824 47.11405877 11.84118185 49.42957945 10.875 52.328125 C4.935 52.658125 -1.005 52.988125 -7.125 53.328125 C-8.45041084 50.67730332 -8.20448448 48.7262583 -8.15234375 45.76171875 C-8.13397461 44.07272461 -8.13397461 44.07272461 -8.11523438 42.34960938 C-8.08047947 39.9875629 -8.04151747 37.62557403 -7.99804688 35.26367188 C-7.93368555 28.59659584 -8.37225964 22.76858663 -10.125 16.328125 C-15.98850756 15.9527115 -15.98850756 15.9527115 -21.125 18.328125 C-22.35215481 21.87827807 -22.42344146 25.55693737 -22.66015625 29.28125 C-22.72462196 30.27158234 -22.72462196 30.27158234 -22.79039001 31.28192139 C-22.92620339 33.38045156 -23.05692232 35.47926319 -23.1875 37.578125 C-23.27896033 39.00522994 -23.37075352 40.43231359 -23.46289062 41.859375 C-23.6880738 45.34869983 -23.90635898 48.83835954 -24.125 52.328125 C-30.065 52.328125 -36.005 52.328125 -42.125 52.328125 C-43.31725915 49.9436067 -43.25182707 48.47903284 -43.25439453 45.81835938 C-43.25754669 44.88399048 -43.26069885 43.94962158 -43.26394653 42.98693848 C-43.2619223 41.97546753 -43.25989807 40.96399658 -43.2578125 39.921875 C-43.25876923 38.88623413 -43.25972595 37.85059326 -43.26071167 36.78356934 C-43.26139298 34.5912266 -43.25954209 32.39888185 -43.25537109 30.20654297 C-43.25002218 26.8420765 -43.25531775 23.47774354 -43.26171875 20.11328125 C-43.26105796 17.98697887 -43.25977678 15.86067657 -43.2578125 13.734375 C-43.25983673 12.72290405 -43.26186096 11.71143311 -43.26394653 10.66931152 C-43.26079437 9.73494263 -43.25764221 8.80057373 -43.25439453 7.83789062 C-43.25359894 7.01341431 -43.25280334 6.18893799 -43.25198364 5.33947754 C-43.125 3.328125 -43.125 3.328125 -42.125 1.328125 C-35.855 1.328125 -29.585 1.328125 -23.125 1.328125 C-23.125 2.318125 -23.125 3.308125 -23.125 4.328125 C-22.01125 3.68875 -20.8975 3.049375 -19.75 2.390625 C-13.615711 -1.13091128 -6.9777754 -2.2062084 0 0 Z " fill="#407EF8" transform="translate(362.125,29.671875)"/>
<path d="M0 0 C5.94 0.33 11.88 0.66 18 1 C18.33 20.14 18.66 39.28 19 59 C26.26 59.33 33.52 59.66 41 60 C41 65.61 41 71.22 41 77 C36.00129402 77.16636758 31.00274927 77.32897293 26.00366211 77.48217773 C24.30535027 77.53533582 22.60710419 77.59064222 20.90893555 77.64819336 C18.45896582 77.73084121 16.00885856 77.80559577 13.55859375 77.87890625 C12.80726669 77.90594131 12.05593964 77.93297638 11.28184509 77.96083069 C10.56162674 77.98092697 9.84140839 78.00102325 9.09936523 78.02172852 C8.47537338 78.04171402 7.85138153 78.06169952 7.20848083 78.08229065 C4.10078786 77.96649428 1.07101644 77.47208291 -2 77 C-2.04627664 67.2557762 -2.08184536 57.51157841 -2.10362434 47.76726723 C-2.11407551 43.2429174 -2.1282589 38.71864259 -2.15087891 34.19433594 C-2.17255993 29.83068476 -2.18455858 25.46710587 -2.18975449 21.103405 C-2.19345879 19.43597653 -2.20069207 17.76855215 -2.21146011 16.10115433 C-2.2259122 13.77128705 -2.22798061 11.44172106 -2.22705078 9.11181641 C-2.23424133 8.41770157 -2.24143188 7.72358673 -2.24884033 7.00843811 C-2.22810432 2.22810432 -2.22810432 2.22810432 0 0 Z " fill="#3F7EFA" transform="translate(246,5)"/>
<path d="M0 0 C4.41278681 2.18821883 7.64039427 4.60905383 9.796875 9.09765625 C10.76633652 12.16662645 11.07058975 15.18644144 11.2578125 18.390625 C11.40890478 21.29219208 11.40890478 21.29219208 11.9765625 24.85546875 C12.56012792 29.38514928 12.36340915 33.75522164 12.05859375 38.30078125 C12.01476562 39.08130859 11.9709375 39.86183594 11.92578125 40.66601562 C11.68362047 44.63139844 11.2205892 48.17830399 10.43359375 52.11328125 C4.16359375 52.11328125 -2.10640625 52.11328125 -8.56640625 52.11328125 C-8.54578125 50.54578125 -8.52515625 48.97828125 -8.50390625 47.36328125 C-8.50390625 41.41582136 -8.72211928 35.4902303 -9.00390625 29.55078125 C-9.04314209 28.6700293 -9.08237793 27.78927734 -9.12280273 26.88183594 C-9.18576538 25.63321777 -9.18576538 25.63321777 -9.25 24.359375 C-9.30498657 23.24067017 -9.30498657 23.24067017 -9.36108398 22.09936523 C-9.51536999 19.90473008 -9.51536999 19.90473008 -10.56640625 17.11328125 C-15.09781278 16.17947164 -15.09781278 16.17947164 -19.56640625 17.11328125 C-21.0662371 20.11294295 -20.8054268 23.23275086 -20.8828125 26.52734375 C-20.9035936 27.25698334 -20.92437469 27.98662292 -20.94578552 28.7383728 C-21.01122542 31.07157888 -21.07013993 33.40489846 -21.12890625 35.73828125 C-21.17209678 37.3190222 -21.21571124 38.89975164 -21.25976562 40.48046875 C-21.36769994 44.35795822 -21.4668138 48.23553255 -21.56640625 52.11328125 C-27.83640625 52.11328125 -34.10640625 52.11328125 -40.56640625 52.11328125 C-41.7458271 48.5750187 -41.67929814 45.77179399 -41.6640625 42.0390625 C-41.66264755 41.35522995 -41.6612326 40.6713974 -41.65977478 39.96684265 C-41.65418501 37.78644403 -41.64163447 35.60614874 -41.62890625 33.42578125 C-41.62388992 31.94596503 -41.61932725 30.46614719 -41.61523438 28.98632812 C-41.60421896 25.36194568 -41.58696137 21.73762355 -41.56640625 18.11328125 C-39.31905697 21.70592958 -39.33440117 24.66470198 -39.37109375 28.84765625 C-39.37753906 30.14316406 -39.38398438 31.43867187 -39.390625 32.7734375 C-39.40733432 34.13672144 -39.42426419 35.50000269 -39.44140625 36.86328125 C-39.45144285 38.2421811 -39.46056752 39.6210879 -39.46875 41 C-39.4923246 44.37116848 -39.52819553 47.74224689 -39.56640625 51.11328125 C-34.61640625 50.78328125 -29.66640625 50.45328125 -24.56640625 50.11328125 C-24.47552734 46.80876953 -24.47552734 46.80876953 -24.3828125 43.4375 C-24.32099566 41.30278179 -24.25761936 39.16811517 -24.1940918 37.03344727 C-24.15079295 35.5504211 -24.10911426 34.06734671 -24.0690918 32.58422852 C-24.01126667 30.45183786 -23.94760793 28.31968883 -23.8828125 26.1875 C-23.84615479 24.90447998 -23.80949707 23.62145996 -23.77172852 22.29956055 C-23.56640625 19.11328125 -23.56640625 19.11328125 -22.56640625 16.11328125 C-21.90640625 16.11328125 -21.24640625 16.11328125 -20.56640625 16.11328125 C-21.79230817 14.03350828 -21.79230817 14.03350828 -23.56640625 12.11328125 C-24.88640625 12.11328125 -26.20640625 12.11328125 -27.56640625 12.11328125 C-27.47359375 10.69015625 -27.47359375 10.69015625 -27.37890625 9.23828125 C-27.44078125 8.20703125 -27.50265625 7.17578125 -27.56640625 6.11328125 C-28.55640625 5.45328125 -29.54640625 4.79328125 -30.56640625 4.11328125 C-30.56640625 3.45328125 -30.56640625 2.79328125 -30.56640625 2.11328125 C-27.94453131 3.16203123 -26.77269264 3.76259438 -25.31640625 6.23828125 C-25.06890625 6.85703125 -24.82140625 7.47578125 -24.56640625 8.11328125 C-23.90640625 8.11328125 -23.24640625 8.11328125 -22.56640625 8.11328125 C-22.38078125 7.55640625 -22.19515625 6.99953125 -22.00390625 6.42578125 C-17.01674738 -1.59703955 -8.62494806 -2.98000489 0 0 Z " fill="#3F7CF3" transform="translate(223.56640625,29.88671875)"/>
<path d="M0 0 C0 16.83 0 33.66 0 51 C-6.6 51 -13.2 51 -20 51 C-19.67 34.17 -19.34 17.34 -19 0 C-3 -1 -3 -1 0 0 Z " fill="#3E78E9" transform="translate(311,31)"/>
<path d="M0 0 C0 0.66 0 1.32 0 2 C1.32 2.66 2.64 3.32 4 4 C3.67 5.98 3.34 7.96 3 10 C4.98 9.67 6.96 9.34 9 9 C9.33 10.65 9.66 12.3 10 14 C9.34 14 8.68 14 8 14 C7.97494385 15.02472412 7.9498877 16.04944824 7.92407227 17.10522461 C7.83015516 20.89409676 7.72989683 24.68277881 7.62768555 28.47143555 C7.58427703 30.11364303 7.54260642 31.75589739 7.50268555 33.39819336 C7.4451256 35.75388745 7.38139108 38.10934428 7.31640625 40.46484375 C7.29133751 41.57266457 7.29133751 41.57266457 7.26576233 42.7028656 C7.11387171 47.88612829 7.11387171 47.88612829 6 49 C3.46950598 49.07313567 0.96695163 49.09247527 -1.5625 49.0625 C-2.27341797 49.05798828 -2.98433594 49.05347656 -3.71679688 49.04882812 C-5.47790013 49.03700864 -7.23896036 49.01907263 -9 49 C-9.01981934 48.1529248 -9.03963867 47.30584961 -9.06005859 46.43310547 C-9.13849595 43.26830998 -9.22520049 40.1038758 -9.31738281 36.93945312 C-9.35549202 35.57398079 -9.39037536 34.20841423 -9.421875 32.84277344 C-9.46791878 30.87152393 -9.52681049 28.90058796 -9.5859375 26.9296875 C-9.63306885 25.15440674 -9.63306885 25.15440674 -9.68115234 23.34326172 C-10.00415768 19.95640484 -10.79649201 17.17134912 -12 14 C-15.3 13.34 -18.6 12.68 -22 12 C-20 8 -20 8 -17 7 C-18.32 5.68 -19.64 4.36 -21 3 C-20 1 -20 1 -17.0625 -0.125 C-11.51637717 -1.58329731 -5.45018702 -1.81672901 0 0 Z " fill="#407EF8" transform="translate(193,32)"/>
<path d="M0 0 C4.95 0 9.9 0 15 0 C15.33 1.98 15.66 3.96 16 6 C17.32 5.01 18.64 4.02 20 3 C20.66 3.33 21.32 3.66 22 4 C19 7 19 7 16 10 C15.83989519 12.73701178 15.74053172 15.4516759 15.68359375 18.19140625 C15.66281265 19.01124496 15.64203156 19.83108368 15.62062073 20.67576599 C15.55503506 23.30458901 15.49619874 25.93351504 15.4375 28.5625 C15.39432333 30.34050561 15.35070933 32.11850065 15.30664062 33.89648438 C15.19934457 38.26421634 15.09810296 42.63205227 15 47 C10.05 47 5.1 47 0 47 C0 31.49 0 15.98 0 0 Z " fill="#3F7EFB" transform="translate(322,33)"/>
<path d="M0 0 C5.94 0.33 11.88 0.66 18 1 C18.33 20.14 18.66 39.28 19 59 C26.26 59.33 33.52 59.66 41 60 C41 65.61 41 71.22 41 77 C36.00129402 77.16636758 31.00274927 77.32897293 26.00366211 77.48217773 C24.30535027 77.53533582 22.60710419 77.59064222 20.90893555 77.64819336 C18.45896582 77.73084121 16.00885856 77.80559577 13.55859375 77.87890625 C12.80726669 77.90594131 12.05593964 77.93297638 11.28184509 77.96083069 C10.56162674 77.98092697 9.84140839 78.00102325 9.09936523 78.02172852 C8.47537338 78.04171402 7.85138153 78.06169952 7.20848083 78.08229065 C4.10078786 77.96649428 1.07101644 77.47208291 -2 77 C-2.04627664 67.2557762 -2.08184536 57.51157841 -2.10362434 47.76726723 C-2.11407551 43.2429174 -2.1282589 38.71864259 -2.15087891 34.19433594 C-2.17255993 29.83068476 -2.18455858 25.46710587 -2.18975449 21.103405 C-2.19345879 19.43597653 -2.20069207 17.76855215 -2.21146011 16.10115433 C-2.2259122 13.77128705 -2.22798061 11.44172106 -2.22705078 9.11181641 C-2.23424133 8.41770157 -2.24143188 7.72358673 -2.24884033 7.00843811 C-2.22810432 2.22810432 -2.22810432 2.22810432 0 0 Z M0 3 C-0.02255261 12.23997871 -0.04091601 21.47993928 -0.05181217 30.71993923 C-0.05704061 35.00999915 -0.06413753 39.30003933 -0.07543945 43.59008789 C-0.08626975 47.726794 -0.09227714 51.86348108 -0.09487724 56.00020027 C-0.09673124 57.58192304 -0.10035136 59.16364471 -0.10573006 60.74535942 C-0.1129424 62.95322838 -0.11399086 65.16101773 -0.11352539 67.36889648 C-0.115746 68.62798325 -0.11796661 69.88707001 -0.12025452 71.18431091 C-0.32207726 73.90335295 -0.32207726 73.90335295 1 75 C3.02535922 75.10001308 5.05420518 75.13081027 7.08203125 75.1328125 C8.32404297 75.13410156 9.56605469 75.13539062 10.84570312 75.13671875 C12.15474609 75.13285156 13.46378906 75.12898438 14.8125 75.125 C16.10994141 75.12886719 17.40738281 75.13273437 18.74414062 75.13671875 C19.99001953 75.13542969 21.23589844 75.13414063 22.51953125 75.1328125 C23.66526611 75.13168457 24.81100098 75.13055664 25.99145508 75.12939453 C28.89523917 75.10871105 28.89523917 75.10871105 31.2175293 74.42919922 C33 74 33 74 36 75 C36.99 74.67 37.98 74.34 39 74 C39 70.04 39 66.08 39 62 C36.74349609 61.90912109 36.74349609 61.90912109 34.44140625 61.81640625 C32.48176011 61.73201957 30.52212524 61.64737065 28.5625 61.5625 C27.56927734 61.52318359 26.57605469 61.48386719 25.55273438 61.44335938 C24.60849609 61.40146484 23.66425781 61.35957031 22.69140625 61.31640625 C21.81685791 61.27974854 20.94230957 61.24309082 20.04125977 61.20532227 C18 61 18 61 17 60 C16.87677242 58.22096643 16.82210981 56.43713797 16.79467773 54.65405273 C16.77473251 53.5129454 16.75478729 52.37183807 16.73423767 51.19615173 C16.71752518 49.9545076 16.70081268 48.71286346 16.68359375 47.43359375 C16.66281265 46.16983414 16.64203156 44.90607452 16.62062073 43.60401917 C16.56616286 40.23881367 16.5159572 36.87359827 16.46777344 33.50830078 C16.41760241 30.07644099 16.36189345 26.64467169 16.30664062 23.21289062 C16.19929805 16.47533008 16.09806829 9.73770166 16 3 C10.72 3 5.44 3 0 3 Z " fill="#3F68BB" transform="translate(246,5)"/>
<path d="M0 0 C3.05995218 2.57314161 5.85372602 5.10266847 7 9 C6.92180259 13.30085755 6.43349606 15.43026232 3.8125 18.875 C0.59712833 21.30439193 -0.98099567 22 -5 22 C-9.25020788 20.77536383 -11.38162201 19.85026974 -14 16.25 C-15.21979581 12.28566362 -15.08945499 9.9946683 -14 6 C-10.23362801 0.15562967 -6.86566531 -2.10173428 0 0 Z " fill="#47F568" transform="translate(305,1)"/>
<path d="M0 0 C5.94 0 11.88 0 18 0 C18.02505615 1.38300293 18.0501123 2.76600586 18.07592773 4.19091797 C18.16990306 9.30852979 18.27014767 14.42600273 18.37231445 19.54345703 C18.41570078 21.76087197 18.45737308 23.97832112 18.49731445 26.19580078 C18.55492754 29.37803472 18.61864764 32.56009584 18.68359375 35.7421875 C18.70030624 36.73805878 18.71701874 37.73393005 18.73423767 38.75997925 C18.75418289 39.68078278 18.77412811 40.6015863 18.79467773 41.55029297 C18.81799416 42.76940872 18.81799416 42.76940872 18.84178162 44.01315308 C18.88102414 46.07438267 18.88102414 46.07438267 20 48 C18.515 48.495 18.515 48.495 17 49 C16 48 16 48 15.87974548 46.17137146 C15.88196609 45.37417191 15.88418671 44.57697235 15.88647461 43.75561523 C15.88655014 42.85475693 15.88662567 41.95389862 15.88670349 41.02574158 C15.89186478 40.04658279 15.89702606 39.06742401 15.90234375 38.05859375 C15.9037587 37.06118668 15.90517365 36.0637796 15.90663147 35.03614807 C15.91224886 31.83656876 15.92480429 28.63705831 15.9375 25.4375 C15.94251276 23.27408955 15.94707605 21.11067801 15.95117188 18.94726562 C15.96222394 13.63148371 15.97950021 8.31575354 16 3 C11.05 3 6.1 3 1 3 C1.33 28.41 1.66 53.82 2 80 C8.93 80.495 8.93 80.495 16 81 C15.97679687 79.72382812 15.95359375 78.44765625 15.9296875 77.1328125 C15.91093171 75.4635475 15.89273131 73.7942762 15.875 72.125 C15.84986328 70.86236328 15.84986328 70.86236328 15.82421875 69.57421875 C15.81777344 68.76855469 15.81132812 67.96289062 15.8046875 67.1328125 C15.79421387 66.38918457 15.78374023 65.64555664 15.77294922 64.87939453 C16 63 16 63 18 61 C18.66 62.32 19.32 63.64 20 65 C19.67 65 19.34 65 19 65 C19.01160156 66.05960937 19.02320313 67.11921875 19.03515625 68.2109375 C19.04453476 69.59895658 19.05363489 70.98697755 19.0625 72.375 C19.07087891 73.07367188 19.07925781 73.77234375 19.08789062 74.4921875 C19.11328125 79.7734375 19.11328125 79.7734375 18 82 C15.02111874 82.1938211 12.04209754 82.38035102 9.0625 82.5625 C8.21236328 82.61857422 7.36222656 82.67464844 6.48632812 82.73242188 C5.67744141 82.78076172 4.86855469 82.82910156 4.03515625 82.87890625 C2.91185913 82.94960327 2.91185913 82.94960327 1.76586914 83.02172852 C0 83 0 83 -1 82 C-1.10034055 79.51573333 -1.13617942 77.05925048 -1.12939453 74.57446289 C-1.13114685 73.7972438 -1.13289917 73.02002472 -1.13470459 72.21925354 C-1.13912402 69.63703206 -1.13618452 67.05487849 -1.1328125 64.47265625 C-1.13348558 62.68525682 -1.13445564 60.89785749 -1.13571167 59.11045837 C-1.13718882 55.35854219 -1.13503379 51.60664976 -1.13037109 47.85473633 C-1.1246779 43.03799323 -1.1279501 38.2213059 -1.13394356 33.40456486 C-1.13755221 29.71149778 -1.13640911 26.01844398 -1.13381577 22.32537651 C-1.13314713 20.54910717 -1.13397273 18.77283663 -1.13629532 16.99656868 C-1.13882636 14.51599039 -1.13497465 12.03550313 -1.12939453 9.55493164 C-1.13141876 8.81563416 -1.13344299 8.07633667 -1.13552856 7.31463623 C-1.1142635 2.228527 -1.1142635 2.228527 0 0 Z " fill="#4369B6" transform="translate(383,0)"/>
<path d="M0 0 C1.625 0.828125 1.625 0.828125 3.875 2.328125 C3.545 2.988125 3.215 3.648125 2.875 4.328125 C1.885 3.668125 0.895 3.008125 -0.125 2.328125 C-3.32306665 1.8677486 -3.32306665 1.8677486 -6.8125 1.703125 C-8.58173828 1.59097656 -8.58173828 1.59097656 -10.38671875 1.4765625 C-11.74216797 1.40308594 -11.74216797 1.40308594 -13.125 1.328125 C-13.455 2.318125 -13.785 3.308125 -14.125 4.328125 C-16.45833333 4.99479167 -18.79166667 5.66145833 -21.125 6.328125 C-21.455 7.318125 -21.785 8.308125 -22.125 9.328125 C-22.785 9.328125 -23.445 9.328125 -24.125 9.328125 C-24.455 7.348125 -24.785 5.368125 -25.125 3.328125 C-30.075 3.328125 -35.025 3.328125 -40.125 3.328125 C-40.125 18.838125 -40.125 34.348125 -40.125 50.328125 C-35.175 50.328125 -30.225 50.328125 -25.125 50.328125 C-25.13660156 48.05292969 -25.14820313 45.77773437 -25.16015625 43.43359375 C-25.16795557 41.22941223 -25.17402736 39.02523224 -25.17993164 36.82104492 C-25.1849596 35.2894624 -25.19178284 33.75788467 -25.20043945 32.22631836 C-25.21257229 30.02456478 -25.21824367 27.82287467 -25.22265625 25.62109375 C-25.22781754 24.93661667 -25.23297882 24.25213959 -25.23829651 23.54692078 C-25.2386536 20.51906258 -25.09116619 18.22662358 -24.125 15.328125 C-20.15084132 13.10727162 -16.6035979 13.15249371 -12.125 13.328125 C-12.125 13.988125 -12.125 14.648125 -12.125 15.328125 C-11.465 15.658125 -10.805 15.988125 -10.125 16.328125 C-11.1975 16.286875 -12.27 16.245625 -13.375 16.203125 C-17.62242368 16.30347388 -17.62242368 16.30347388 -21.125 18.328125 C-22.35215481 21.87827807 -22.42344146 25.55693737 -22.66015625 29.28125 C-22.72462196 30.27158234 -22.72462196 30.27158234 -22.79039001 31.28192139 C-22.92620339 33.38045156 -23.05692232 35.47926319 -23.1875 37.578125 C-23.27896033 39.00522994 -23.37075352 40.43231359 -23.46289062 41.859375 C-23.6880738 45.34869983 -23.90635898 48.83835954 -24.125 52.328125 C-30.065 52.328125 -36.005 52.328125 -42.125 52.328125 C-43.31725915 49.9436067 -43.25182707 48.47903284 -43.25439453 45.81835938 C-43.25754669 44.88399048 -43.26069885 43.94962158 -43.26394653 42.98693848 C-43.2619223 41.97546753 -43.25989807 40.96399658 -43.2578125 39.921875 C-43.25876923 38.88623413 -43.25972595 37.85059326 -43.26071167 36.78356934 C-43.26139298 34.5912266 -43.25954209 32.39888185 -43.25537109 30.20654297 C-43.25002218 26.8420765 -43.25531775 23.47774354 -43.26171875 20.11328125 C-43.26105796 17.98697887 -43.25977678 15.86067657 -43.2578125 13.734375 C-43.25983673 12.72290405 -43.26186096 11.71143311 -43.26394653 10.66931152 C-43.26079437 9.73494263 -43.25764221 8.80057373 -43.25439453 7.83789062 C-43.25359894 7.01341431 -43.25280334 6.18893799 -43.25198364 5.33947754 C-43.125 3.328125 -43.125 3.328125 -42.125 1.328125 C-35.855 1.328125 -29.585 1.328125 -23.125 1.328125 C-23.125 2.318125 -23.125 3.308125 -23.125 4.328125 C-22.01125 3.68875 -20.8975 3.049375 -19.75 2.390625 C-13.615711 -1.13091128 -6.9777754 -2.2062084 0 0 Z " fill="#406DBD" transform="translate(362.125,29.671875)"/>
<path d="M0 0 C1.23965007 0.83887967 2.47004612 1.69172021 3.6875 2.5625 C4.574375 3.18125 5.46125 3.8 6.375 4.4375 C13.57570317 11.05436237 13.57570317 11.05436237 13.77734375 15.578125 C11.98468669 18.84217441 8.70673977 19.5907582 5.375 20.8125 C4.69759766 21.080625 4.02019531 21.34875 3.32226562 21.625 C-0.1270285 22.94672365 -2.5745166 23.5625 -6.3125 23.5625 C-7.83984375 22.1015625 -7.83984375 22.1015625 -9.25 20.1875 C-11.61413371 16.98702929 -13.46237633 15.67525251 -17.3125 14.5625 C-20.43829194 14.32237081 -20.43829194 14.32237081 -23.625 14.4375 C-24.69363281 14.45554687 -25.76226562 14.47359375 -26.86328125 14.4921875 C-28.07564453 14.52699219 -28.07564453 14.52699219 -29.3125 14.5625 C-29.3125 13.9025 -29.3125 13.2425 -29.3125 12.5625 C-26.42834117 11.12042059 -23.89528472 11.46855113 -20.6875 11.5 C-19.49898437 11.50902344 -18.31046875 11.51804687 -17.0859375 11.52734375 C-16.17070313 11.53894531 -15.25546875 11.55054687 -14.3125 11.5625 C-13.9825 12.5525 -13.6525 13.5425 -13.3125 14.5625 C-12.3225 14.5625 -11.3325 14.5625 -10.3125 14.5625 C-9.8175 15.5525 -9.8175 15.5525 -9.3125 16.5625 C-5.10433921 18.73034041 -0.95707826 19.09017001 3.6875 19.5625 C3.6875 18.9025 3.6875 18.2425 3.6875 17.5625 C4.6775 17.5625 5.6675 17.5625 6.6875 17.5625 C6.6875 16.9025 6.6875 16.2425 6.6875 15.5625 C8.0075 15.5625 9.3275 15.5625 10.6875 15.5625 C10.048125 14.82 9.40875 14.0775 8.75 13.3125 C6.90416593 10.8513879 6.12680826 9.52783074 5.6875 6.5625 C5.0275 6.5625 4.3675 6.5625 3.6875 6.5625 C3.6875 5.9025 3.6875 5.2425 3.6875 4.5625 C1.2125 3.5725 1.2125 3.5725 -1.3125 2.5625 C-1.3125 1.9025 -1.3125 1.2425 -1.3125 0.5625 C-2.3025 0.8925 -3.2925 1.2225 -4.3125 1.5625 C-4.3125 0.9025 -4.3125 0.2425 -4.3125 -0.4375 C-9.9734975 -1.40401177 -15.45080219 -1.58881513 -21.1875 -1.5625 C-22.05375 -1.56636719 -22.92 -1.57023438 -23.8125 -1.57421875 C-24.63492188 -1.57292969 -25.45734375 -1.57164063 -26.3046875 -1.5703125 C-27.42399658 -1.56862061 -27.42399658 -1.56862061 -28.56591797 -1.56689453 C-30.34115732 -1.62648662 -30.34115732 -1.62648662 -31.3125 -0.4375 C-33.32561449 -0.04180892 -35.34847208 0.30502191 -37.375 0.625 C-38.47972656 0.80160156 -39.58445312 0.97820313 -40.72265625 1.16015625 C-41.57730469 1.29292969 -42.43195312 1.42570313 -43.3125 1.5625 C-41.17078458 -0.82607981 -39.3966719 -2.00694475 -36.375 -3.0625 C-35.70597656 -3.30226563 -35.03695312 -3.54203125 -34.34765625 -3.7890625 C-22.8096665 -7.4652742 -10.36979889 -6.25663844 0 0 Z " fill="#3A5EA6" transform="translate(63.3125,9.4375)"/>
<path d="M0 0 C0.83660156 0.17144531 1.67320313 0.34289062 2.53515625 0.51953125 C4.86840613 1.16828853 6.81834186 2.02759127 8.9375 3.1875 C9.5975 2.5275 10.2575 1.8675 10.9375 1.1875 C17.2075 1.1875 23.4775 1.1875 29.9375 1.1875 C29.9375 18.3475 29.9375 35.5075 29.9375 53.1875 C23.6675 53.1875 17.3975 53.1875 10.9375 53.1875 C10.9375 52.5275 10.9375 51.8675 10.9375 51.1875 C10.08027344 51.56003906 9.22304687 51.93257812 8.33984375 52.31640625 C-0.77008918 56.08567951 -5.76324178 56.58966764 -15.0625 53.1875 C-12.28526075 52.40061555 -9.83639923 52.06800076 -6.953125 52.08984375 C-6.19902344 52.09306641 -5.44492188 52.09628906 -4.66796875 52.09960938 C-3.89066406 52.10798828 -3.11335938 52.11636719 -2.3125 52.125 C-1.51972656 52.12951172 -0.72695312 52.13402344 0.08984375 52.13867188 C2.03909508 52.15041435 3.98830738 52.16834854 5.9375 52.1875 C5.9375 50.2075 5.9375 48.2275 5.9375 46.1875 C6.5975 46.1875 7.2575 46.1875 7.9375 46.1875 C7.9375 47.1775 7.9375 48.1675 7.9375 49.1875 C9.5875 49.1875 11.2375 49.1875 12.9375 49.1875 C12.9375 50.1775 12.9375 51.1675 12.9375 52.1875 C18.2175 52.1875 23.4975 52.1875 28.9375 52.1875 C28.9375 35.6875 28.9375 19.1875 28.9375 2.1875 C23.3275 2.1875 17.7175 2.1875 11.9375 2.1875 C11.9375 3.5075 11.9375 4.8275 11.9375 6.1875 C10.6175 6.5175 9.2975 6.8475 7.9375 7.1875 C7.9375 6.5275 7.9375 5.8675 7.9375 5.1875 C7.2775 5.1875 6.6175 5.1875 5.9375 5.1875 C5.9375 4.5275 5.9375 3.8675 5.9375 3.1875 C4.9475 3.5175 3.9575 3.8475 2.9375 4.1875 C2.2775 3.8575 1.6175 3.5275 0.9375 3.1875 C-0.76613822 2.96127919 -2.47578701 2.77861527 -4.1875 2.625 C-5.09757812 2.54121094 -6.00765625 2.45742188 -6.9453125 2.37109375 C-7.64398438 2.31050781 -8.34265625 2.24992187 -9.0625 2.1875 C-9.0625 2.8475 -9.0625 3.5075 -9.0625 4.1875 C-11.0425 4.1875 -13.0225 4.1875 -15.0625 4.1875 C-15.0625 4.8475 -15.0625 5.5075 -15.0625 6.1875 C-20.53869048 11.1875 -20.53869048 11.1875 -23.0625 11.1875 C-23.3925 12.5075 -23.7225 13.8275 -24.0625 15.1875 C-24.7225 15.1875 -25.3825 15.1875 -26.0625 15.1875 C-23.89644608 8.86984275 -21.03925729 5.49568951 -15.125 2.4375 C-9.85530751 -0.13626016 -5.79723294 -1.24546426 0 0 Z " fill="#375B9F" transform="translate(110.0625,28.8125)"/>
<path d="M0 0 C0 0.66 0 1.32 0 2 C0.66 2.33 1.32 2.66 2 3 C0.02 3.99 0.02 3.99 -2 5 C-2.33 4.01 -2.66 3.02 -3 2 C-7.95 1.67 -12.9 1.34 -18 1 C-18 17.17 -18 33.34 -18 50 C-12.72 50 -7.44 50 -2 50 C-2 38.45 -2 26.9 -2 15 C-1.01 15 -0.02 15 1 15 C1 14.34 1 13.68 1 13 C2.4370809 12.94577053 3.87475462 12.90710277 5.3125 12.875 C6.11300781 12.85179687 6.91351563 12.82859375 7.73828125 12.8046875 C10 13 10 13 13 15 C12.67 15.66 12.34 16.32 12 17 C11.01 16.34 10.02 15.68 9 15 C5.95804573 14.66659529 5.95804573 14.66659529 3 15 C0.13231454 17.86768546 0.64651855 20.78652305 0.5859375 24.6328125 C0.56657135 25.38464813 0.5472052 26.13648376 0.5272522 26.91110229 C0.46740853 29.31561899 0.42105274 31.72018344 0.375 34.125 C0.33682454 35.75392728 0.29777307 37.38283428 0.2578125 39.01171875 C0.1600513 43.00770777 0.08052379 47.00347734 0 51 C-6.6 51 -13.2 51 -20 51 C-20 34.17 -20 17.34 -20 0 C-2 -1 -2 -1 0 0 Z " fill="#39599D" transform="translate(169,31)"/>
<path d="M0 0 C3.55657176 1.18552392 4.41085391 2.61239243 6.15234375 5.84375 C7.37692343 8.95880983 7.6300569 11.95440245 7.82421875 15.27734375 C7.97531103 18.17891083 7.97531103 18.17891083 8.54296875 21.7421875 C9.12653417 26.27186803 8.9298154 30.64194039 8.625 35.1875 C8.58117187 35.96802734 8.53734375 36.74855469 8.4921875 37.55273438 C8.25002672 41.51811719 7.78699545 45.06502274 7 49 C0.73 49 -5.54 49 -12 49 C-11.979375 47.4325 -11.95875 45.865 -11.9375 44.25 C-11.9375 38.30254011 -12.15571303 32.37694905 -12.4375 26.4375 C-12.49635376 25.11637207 -12.49635376 25.11637207 -12.55639648 23.76855469 C-12.59837158 22.93614258 -12.64034668 22.10373047 -12.68359375 21.24609375 C-12.72025146 20.50029053 -12.75690918 19.7544873 -12.79467773 18.98608398 C-13.11939136 15.84512636 -13.75822115 14.24177885 -16 12 C-13.03 12.495 -13.03 12.495 -10 13 C-9.67 24.22 -9.34 35.44 -9 47 C-4.05 47.33 0.9 47.66 6 48 C6 35.46 6 22.92 6 10 C5.34 10 4.68 10 4 10 C3.32845067 8.71086513 2.66291141 7.41859796 2 6.125 C1.62875 5.40570313 1.2575 4.68640625 0.875 3.9453125 C0 2 0 2 0 0 Z " fill="#324F9F" transform="translate(227,33)"/>
<path d="M0 0 C3.4968149 3.4968149 3.11584358 7.75232285 3.13894653 12.52090454 C3.1369223 13.20752167 3.13489807 13.89413879 3.1328125 14.6015625 C3.13424759 15.67898209 3.13424759 15.67898209 3.13571167 16.77816772 C3.13638946 18.28928719 3.13456326 19.80040963 3.13037109 21.31152344 C3.12500136 23.62441518 3.1303377 25.93711413 3.13671875 28.25 C3.1360582 29.72135459 3.13477753 31.19270907 3.1328125 32.6640625 C3.13483673 33.35472809 3.13686096 34.04539368 3.13894653 34.75698853 C3.12412824 37.78593377 2.96618185 40.10145445 2 43 C-3.94 43.33 -9.88 43.66 -16 44 C-17.32541084 41.34917832 -17.07948448 39.3981333 -17.02734375 36.43359375 C-17.01509766 35.30759766 -17.00285156 34.18160156 -16.99023438 33.02148438 C-16.95547947 30.6594379 -16.91651747 28.29744903 -16.87304688 25.93554688 C-16.80868555 19.26847084 -17.24725964 13.44046163 -19 7 C-18.01 7 -17.02 7 -16 7 C-13.57425707 10.6386144 -13.76153455 12.29756971 -13.8125 16.625 C-13.81894531 17.27218994 -13.82539063 17.91937988 -13.83203125 18.58618164 C-13.95118709 26.40485293 -14.48424937 34.19927168 -15 42 C-9.72 42 -4.44 42 1 42 C0.505 21.21 0.505 21.21 0 0 Z " fill="#3B528D" transform="translate(371,39)"/>
<path d="M0 0 C4.34671293 1.41367259 8.6135639 2.97260641 12.875 4.625 C14.02742188 5.07101563 15.17984375 5.51703125 16.3671875 5.9765625 C17.23601562 6.31429687 18.10484375 6.65203125 19 7 C19 11 19 11 16.5 13.75 C15.675 14.4925 14.85 15.235 14 16 C14 13.69 14 11.38 14 9 C12.5903653 8.29819469 11.17192359 7.61406042 9.75 6.9375 C8.96109375 6.55464844 8.1721875 6.17179687 7.359375 5.77734375 C4.66951598 4.89111537 3.57956679 4.88218772 1 6 C0.04779932 6.9877714 -0.86655277 8.01278601 -1.75 9.0625 C-6.41630752 13.30182513 -12.23629996 12.62435432 -18.16015625 12.40625 C-21.80154414 12.02099635 -24.69204103 11.57090289 -28 10 C-28.875 7.875 -28.875 7.875 -29 6 C-27.88625 6.66 -26.7725 7.32 -25.625 8 C-20.74926655 10.42057689 -16.36201224 10.88315496 -11 10 C-6.11653034 7.60433564 -3.26425765 4.22433343 0 0 Z " fill="#3B61AD" transform="translate(58,55)"/>
<path d="M0 0 C0.33 0 0.66 0 1 0 C1 26.07 1 52.14 1 79 C6.28 79 11.56 79 17 79 C16.97679687 77.72382812 16.95359375 76.44765625 16.9296875 75.1328125 C16.91093171 73.4635475 16.89273131 71.7942762 16.875 70.125 C16.84986328 68.86236328 16.84986328 68.86236328 16.82421875 67.57421875 C16.81777344 66.76855469 16.81132812 65.96289062 16.8046875 65.1328125 C16.79421387 64.38918457 16.78374023 63.64555664 16.77294922 62.87939453 C17 61 17 61 19 59 C19.66 60.32 20.32 61.64 21 63 C20.67 63 20.34 63 20 63 C20.01160156 64.05960937 20.02320313 65.11921875 20.03515625 66.2109375 C20.04453476 67.59895658 20.05363489 68.98697755 20.0625 70.375 C20.07087891 71.07367188 20.07925781 71.77234375 20.08789062 72.4921875 C20.11328125 77.7734375 20.11328125 77.7734375 19 80 C16.02111874 80.1938211 13.04209754 80.38035102 10.0625 80.5625 C9.21236328 80.61857422 8.36222656 80.67464844 7.48632812 80.73242188 C6.67744141 80.78076172 5.86855469 80.82910156 5.03515625 80.87890625 C3.91185913 80.94960327 3.91185913 80.94960327 2.76586914 81.02172852 C1 81 1 81 0 80 C-0.09502416 77.50507612 -0.12557566 75.03793986 -0.11352539 72.54272461 C-0.11367142 71.76229294 -0.11381744 70.98186127 -0.1139679 70.17778015 C-0.11326858 67.5859402 -0.10547536 64.99417122 -0.09765625 62.40234375 C-0.09579213 60.6101536 -0.0943682 58.81796294 -0.09336853 57.02577209 C-0.08954284 52.29929203 -0.07971212 47.57284248 -0.06866455 42.84637451 C-0.05845153 38.0271445 -0.05387115 33.20790958 -0.04882812 28.38867188 C-0.03808989 18.92576781 -0.02101286 9.46288644 0 0 Z " fill="#314F8F" transform="translate(382,2)"/>
<path d="M0 0 C5.61 0 11.22 0 17 0 C17 16.5 17 33 17 50 C16.34 50 15.68 50 15 50 C15 34.16 15 18.32 15 2 C10.71 2 6.42 2 2 2 C1.67 2.99 1.34 3.98 1 5 C0.01 4.67 -0.98 4.34 -2 4 C-1.34 4 -0.68 4 0 4 C0 2.68 0 1.36 0 0 Z " fill="#4A7DE4" transform="translate(122,31)"/>
<path d="M0 0 C1.34908954 2.69817907 0.70485778 4.01120346 0.0625 6.9375 C-2.0295219 17.83878418 -0.68889261 27.36555086 2 38 C2.66 38 3.32 38 4 38 C4 39.65 4 41.3 4 43 C4.66 43 5.32 43 6 43 C7.2471852 44.47692984 8.49035235 45.95797404 9.69140625 47.47265625 C11.25509754 49.29774071 13.07611618 50.57490087 15 52 C15 52.66 15 53.32 15 54 C8.87332519 52.32908869 4.80636148 47.87311039 1.51171875 42.6328125 C-4.56975757 31.11568036 -6.26101464 17.76159168 -2.5625 5.125 C-1.23308271 1.23308271 -1.23308271 1.23308271 0 0 Z " fill="#416BC6" transform="translate(7,25)"/>
<path d="M0 0 C0.99 0.33 1.98 0.66 3 1 C2.67 1.66 2.34 2.32 2 3 C1.84373424 5.47832659 1.74186802 7.93311331 1.68359375 10.4140625 C1.66281265 11.14370209 1.64203156 11.87334167 1.62062073 12.62509155 C1.55518083 14.95829763 1.49626632 17.29161721 1.4375 19.625 C1.39430947 21.20574095 1.35069501 22.78647039 1.30664062 24.3671875 C1.19870631 28.24467697 1.09959245 32.1222513 1 36 C-5.27 36 -11.54 36 -18 36 C-19.17942085 32.46173745 -19.11289189 29.65851274 -19.09765625 25.92578125 C-19.0962413 25.2419487 -19.09482635 24.55811615 -19.09336853 23.8535614 C-19.08777876 21.67316278 -19.07522822 19.49286749 -19.0625 17.3125 C-19.05748367 15.83268378 -19.052921 14.35286594 -19.04882812 12.87304688 C-19.03781271 9.24866443 -19.02055512 5.6243423 -19 2 C-16.75265072 5.59264833 -16.76799492 8.55142073 -16.8046875 12.734375 C-16.81113281 14.02988281 -16.81757813 15.32539062 -16.82421875 16.66015625 C-16.84092807 18.02344019 -16.85785794 19.38672144 -16.875 20.75 C-16.8850366 22.12889985 -16.89416127 23.50780665 -16.90234375 24.88671875 C-16.92591835 28.25788723 -16.96178928 31.62896564 -17 35 C-12.05 34.67 -7.1 34.34 -2 34 C-1.90912109 30.69548828 -1.90912109 30.69548828 -1.81640625 27.32421875 C-1.75458941 25.18950054 -1.69121311 23.05483392 -1.62768555 20.92016602 C-1.5843867 19.43713985 -1.54270801 17.95406546 -1.50268555 16.47094727 C-1.44486042 14.33855661 -1.38120168 12.20640758 -1.31640625 10.07421875 C-1.27974854 8.79119873 -1.24309082 7.50817871 -1.20532227 6.1862793 C-1 3 -1 3 0 0 Z " fill="#3B5A9E" transform="translate(201,46)"/>
<path d="M0 0 C1.05130638 0.82113871 2.09036153 1.65795657 3.125 2.5 C3.70507812 2.9640625 4.28515625 3.428125 4.8828125 3.90625 C7.95273886 6.94219194 10.40945935 10.54594579 13 14 C4.42 14 -4.16 14 -13 14 C-13 13.67 -13 13.34 -13 13 C-12.10796875 12.95101562 -11.2159375 12.90203125 -10.296875 12.8515625 C-8.54117187 12.73941406 -8.54117187 12.73941406 -6.75 12.625 C-5.00976562 12.52058594 -5.00976562 12.52058594 -3.234375 12.4140625 C-0.29305666 12.03751692 1.49949011 11.5225877 4 10 C4 8.68 4 7.36 4 6 C2.68 5.34 1.36 4.68 0 4 C0 2.68 0 1.36 0 0 Z " fill="#426EC7" transform="translate(431,68)"/>
<path d="M0 0 C0.66 0 1.32 0 2 0 C2 0.99 2 1.98 2 3 C3.65 3 5.3 3 7 3 C7 3.99 7 4.98 7 6 C12.28 6 17.56 6 23 6 C23 6.33 23 6.66 23 7 C17.06 7 11.12 7 5 7 C5 6.34 5 5.68 5 5 C4.14277344 5.37253906 3.28554687 5.74507813 2.40234375 6.12890625 C-6.70758918 9.89817951 -11.70074178 10.40216764 -21 7 C-18.22276075 6.21311555 -15.77389923 5.88050076 -12.890625 5.90234375 C-12.13652344 5.90556641 -11.38242188 5.90878906 -10.60546875 5.91210938 C-9.82816406 5.92048828 -9.05085938 5.92886719 -8.25 5.9375 C-7.45722656 5.94201172 -6.66445312 5.94652344 -5.84765625 5.95117188 C-3.89840492 5.96291435 -1.94919262 5.98084854 0 6 C0 4.02 0 2.04 0 0 Z " fill="#446EC3" transform="translate(116,75)"/>
<path d="M0 0 C0.33 0.99 0.66 1.98 1 3 C1.66 3 2.32 3 3 3 C2.54177532 6.46941546 2.10868317 9.67395049 1 13 C0.34 13 -0.32 13 -1 13 C-1 13.99 -1 14.98 -1 16 C-2.32 15.67 -3.64 15.34 -5 15 C-4.34 13.68 -3.68 12.36 -3 11 C-2.34 11 -1.68 11 -1 11 C-1 9.02 -1 7.04 -1 5 C-2.32 5 -3.64 5 -5 5 C-5 4.34 -5 3.68 -5 3 C-6.65 3.66 -8.3 4.32 -10 5 C-9.625 3.0625 -9.625 3.0625 -9 1 C-6.04335481 -0.4783226 -3.25770263 -0.06032783 0 0 Z " fill="#43FD64" transform="translate(305,3)"/>
<path d="M0 0 C1.18851563 0.00902344 2.37703125 0.01804687 3.6015625 0.02734375 C4.51679687 0.03894531 5.43203125 0.05054687 6.375 0.0625 C6.705 1.0525 7.035 2.0425 7.375 3.0625 C8.365 3.0625 9.355 3.0625 10.375 3.0625 C10.705 3.7225 11.035 4.3825 11.375 5.0625 C13.48827425 5.96975434 13.48827425 5.96975434 15.9375 6.6875 C16.76378906 6.94789062 17.59007813 7.20828125 18.44140625 7.4765625 C19.07949219 7.66992188 19.71757813 7.86328125 20.375 8.0625 C20.375 8.7225 20.375 9.3825 20.375 10.0625 C19.715 10.0625 19.055 10.0625 18.375 10.0625 C18.045 11.0525 17.715 12.0425 17.375 13.0625 C14.23284202 11.89873779 13.11013199 10.7365086 10.9375 8.0625 C8.26279124 4.93113365 7.20192873 4.21057862 3.375 3.0625 C0.24920806 2.82237081 0.24920806 2.82237081 -2.9375 2.9375 C-4.00613281 2.95554687 -5.07476562 2.97359375 -6.17578125 2.9921875 C-7.38814453 3.02699219 -7.38814453 3.02699219 -8.625 3.0625 C-8.625 2.4025 -8.625 1.7425 -8.625 1.0625 C-5.74084117 -0.37957941 -3.20778472 -0.03144887 0 0 Z " fill="#3E63B0" transform="translate(42.625,20.9375)"/>
<path d="M0 0 C6.27 0 12.54 0 19 0 C19 17.16 19 34.32 19 52 C18.67 52 18.34 52 18 52 C18 35.17 18 18.34 18 1 C12.39 1 6.78 1 1 1 C1 2.32 1 3.64 1 5 C0.01 4.67 -0.98 4.34 -2 4 C-1.34 2.68 -0.68 1.36 0 0 Z " fill="#314D90" transform="translate(121,30)"/>
<path d="M0 0 C1.625 0.828125 1.625 0.828125 3.875 2.328125 C3.545 2.988125 3.215 3.648125 2.875 4.328125 C1.885 3.668125 0.895 3.008125 -0.125 2.328125 C-3.32306665 1.8677486 -3.32306665 1.8677486 -6.8125 1.703125 C-8.58173828 1.59097656 -8.58173828 1.59097656 -10.38671875 1.4765625 C-11.74216797 1.40308594 -11.74216797 1.40308594 -13.125 1.328125 C-13.455 2.318125 -13.785 3.308125 -14.125 4.328125 C-16.45833333 4.99479167 -18.79166667 5.66145833 -21.125 6.328125 C-21.455 7.318125 -21.785 8.308125 -22.125 9.328125 C-22.785 9.328125 -23.445 9.328125 -24.125 9.328125 C-24.125 6.688125 -24.125 4.048125 -24.125 1.328125 C-23.795 2.318125 -23.465 3.308125 -23.125 4.328125 C-22.01125 3.68875 -20.8975 3.049375 -19.75 2.390625 C-13.615711 -1.13091128 -6.9777754 -2.2062084 0 0 Z " fill="#395CA0" transform="translate(362.125,29.671875)"/>
<path d="M0 0 C0 0.66 0 1.32 0 2 C0.66 2.33 1.32 2.66 2 3 C0.39125 2.938125 0.39125 2.938125 -1.25 2.875 C-5.49742368 2.97534888 -5.49742368 2.97534888 -9 5 C-10.26532906 8.99085741 -10.33874416 13.09767852 -10.5625 17.25 C-10.60568359 17.99507812 -10.64886719 18.74015625 -10.69335938 19.5078125 C-10.79896725 21.338349 -10.89994201 23.16915176 -11 25 C-11.33 25 -11.66 25 -12 25 C-12.19689005 21.72966072 -12.38089008 18.45872059 -12.5625 15.1875 C-12.61857422 14.25873047 -12.67464844 13.32996094 -12.73242188 12.37304688 C-12.78076172 11.48037109 -12.82910156 10.58769531 -12.87890625 9.66796875 C-12.9260376 8.84578857 -12.97316895 8.0236084 -13.02172852 7.17651367 C-13 5 -13 5 -12 2 C-8.02584132 -0.22085338 -4.4785979 -0.17563129 0 0 Z " fill="#345294" transform="translate(350,43)"/>
<path d="M0 0 C2 3 2 3 1.9375 6.375 C0.81386924 10.71970562 -0.43930354 12.30969601 -4 15 C-8.36297288 16.36342902 -10.9359666 16.0320167 -15 14 C-11.78548731 12.39274365 -8.56387464 12.94251815 -5 13 C-5.33 11.68 -5.66 10.36 -6 9 C-5.34 9 -4.68 9 -4 9 C-3.67 7.35 -3.34 5.7 -3 4 C-2.34 4 -1.68 4 -1 4 C-0.67 2.68 -0.34 1.36 0 0 Z " fill="#38AA4C" transform="translate(310,7)"/>
<path d="M0 0 C0.99 0.66 1.98 1.32 3 2 C2.67 2.66 2.34 3.32 2 4 C1.95397219 6.50851581 1.95314432 8.99322123 2 11.5 C2.13513514 18.72972973 2.13513514 18.72972973 1 21 C-4.28 21 -9.56 21 -15 21 C-15 20.67 -15 20.34 -15 20 C-10.38 20 -5.76 20 -1 20 C-1.01160156 18.72382812 -1.02320313 17.44765625 -1.03515625 16.1328125 C-1.04453417 14.46354313 -1.05363437 12.79427217 -1.0625 11.125 C-1.07087891 10.28324219 -1.07925781 9.44148438 -1.08789062 8.57421875 C-1.09111328 7.76855469 -1.09433594 6.96289062 -1.09765625 6.1328125 C-1.10289307 5.38918457 -1.10812988 4.64555664 -1.11352539 3.87939453 C-1 2 -1 2 0 0 Z " fill="#3A5FA2" transform="translate(400,61)"/>
<path d="M0 0 C1.30031393 2.60062787 0.75387709 3.44834121 0.0625 6.25 C-1.82144938 15.66974692 -1.1644582 25.43991808 -1 35 C-5.2522864 28.6215704 -4.57171657 18.48076594 -4 11 C-2.07588533 2.07588533 -2.07588533 2.07588533 0 0 Z " fill="#355694" transform="translate(7,25)"/>
<path d="M0 0 C1.4370809 -0.05422947 2.87475462 -0.09289723 4.3125 -0.125 C5.11300781 -0.14820313 5.91351563 -0.17140625 6.73828125 -0.1953125 C9 0 9 0 12 2 C11.67 2.66 11.34 3.32 11 4 C10.01 3.34 9.02 2.68 8 2 C4.95804573 1.66659529 4.95804573 1.66659529 2 2 C-0.86768546 4.86768546 -0.35348145 7.78652305 -0.4140625 11.6328125 C-0.43342865 12.38464813 -0.4527948 13.13648376 -0.4727478 13.91110229 C-0.53259147 16.31561899 -0.57894726 18.72018344 -0.625 21.125 C-0.66317546 22.75392728 -0.70222693 24.38283428 -0.7421875 26.01171875 C-0.83829666 30.00764806 -0.92230941 34.00367187 -1 38 C-1.33 38 -1.66 38 -2 38 C-2.33 26.12 -2.66 14.24 -3 2 C-2.01 2 -1.02 2 0 2 C0 1.34 0 0.68 0 0 Z " fill="#1D3251" transform="translate(170,44)"/>
<path d="M0 0 C1.74796875 0.04060547 1.74796875 0.04060547 3.53125 0.08203125 C6.39774172 0.15251875 9.26040655 0.25100539 12.125 0.375 C10.805 1.695 9.485 3.015 8.125 4.375 C8.125 3.385 8.125 2.395 8.125 1.375 C4.6639922 1.5942655 1.20743719 1.85558931 -2.25 2.125 C-3.72726562 2.2178125 -3.72726562 2.2178125 -5.234375 2.3125 C-6.17539062 2.38984375 -7.11640625 2.4671875 -8.0859375 2.546875 C-9.38990479 2.6411377 -9.38990479 2.6411377 -10.72021484 2.73730469 C-13.06274388 3.17344493 -13.06274388 3.17344493 -14.17431641 5.42675781 C-14.40554199 6.06967773 -14.63676758 6.71259766 -14.875 7.375 C-16.195 7.045 -17.515 6.715 -18.875 6.375 C-13.56397974 -0.82606306 -8.52543401 -0.37527305 0 0 Z " fill="#5073BA" transform="translate(429.875,30.625)"/>
<path d="M0 0 C2.97 0.495 2.97 0.495 6 1 C6.18451025 17.8929385 6.18451025 17.8929385 5 25 C4.67 25 4.34 25 4 25 C3.97494385 24.40985107 3.9498877 23.81970215 3.92407227 23.21166992 C3.80799948 20.53673186 3.68532428 17.8621362 3.5625 15.1875 C3.52318359 14.25873047 3.48386719 13.32996094 3.44335938 12.37304688 C3.40146484 11.48037109 3.35957031 10.58769531 3.31640625 9.66796875 C3.27974854 8.84578857 3.24309082 8.0236084 3.20532227 7.17651367 C2.90092718 3.949781 2.30634003 2.30634003 0 0 Z " fill="#33508D" transform="translate(211,45)"/>
<path d="M0 0 C0.85464844 0.17144531 1.70929688 0.34289062 2.58984375 0.51953125 C5.00940556 1.17315695 6.94902992 1.83998552 9.0625 3.1875 C9.3925 4.1775 9.7225 5.1675 10.0625 6.1875 C9.0725 6.6825 9.0725 6.6825 8.0625 7.1875 C8.0625 6.5275 8.0625 5.8675 8.0625 5.1875 C7.4025 5.1875 6.7425 5.1875 6.0625 5.1875 C6.0625 4.5275 6.0625 3.8675 6.0625 3.1875 C5.0725 3.5175 4.0825 3.8475 3.0625 4.1875 C2.4025 3.8575 1.7425 3.5275 1.0625 3.1875 C-0.97805005 3.11684383 -3.02084257 3.10328024 -5.0625 3.125 C-6.15820312 3.13402344 -7.25390625 3.14304687 -8.3828125 3.15234375 C-9.64738281 3.16974609 -9.64738281 3.16974609 -10.9375 3.1875 C-7.4535442 -0.62826111 -4.9701683 -1.03887728 0 0 Z " fill="#3D61AD" transform="translate(109.9375,28.8125)"/>
<path d="M0 0 C0.86963087 2.99706695 1.11763099 5.64956526 1.09765625 8.765625 C1.09443359 9.65507813 1.09121094 10.54453125 1.08789062 11.4609375 C1.07951172 12.38132812 1.07113281 13.30171875 1.0625 14.25 C1.05798828 15.18585937 1.05347656 16.12171875 1.04882812 17.0859375 C1.03706918 19.39069041 1.02063426 21.69531227 1 24 C0.34 23.67 -0.32 23.34 -1 23 C-3.49404989 15.36543617 -3.64489164 7.28978329 0 0 Z " fill="#36538A" transform="translate(83,44)"/>
<path d="M0 0 C1.23102992 3.69308976 0.87175152 6.88050712 0.5625 10.6875 C0.51029297 11.38939453 0.45808594 12.09128906 0.40429688 12.81445312 C0.27492135 14.54338054 0.13817469 16.27175355 0 18 C-0.66 18 -1.32 18 -2 18 C-3.26237731 15.47524538 -3.09856404 13.68799534 -3.0625 10.875 C-3.05347656 9.96492188 -3.04445313 9.05484375 -3.03515625 8.1171875 C-3.02355469 7.41851562 -3.01195313 6.71984375 -3 6 C-2.34 6 -1.68 6 -1 6 C-0.67 4.02 -0.34 2.04 0 0 Z " fill="#37559E" transform="translate(25,34)"/>
<path d="M0 0 C1.40378906 -0.02126953 1.40378906 -0.02126953 2.8359375 -0.04296875 C5.78618154 0.20081892 7.94864112 0.95637492 10.625 2.1875 C7.71372439 3.1579252 6.0124735 3.26400726 3 3.1875 C-1.87842726 3.13010674 -6.53861599 3.56345045 -11.375 4.1875 C-7.9367006 0.42174351 -4.97646971 0.03408541 0 0 Z " fill="#385A9B" transform="translate(182.375,28.8125)"/>
<path d="M0 0 C0.99 0 1.98 0 3 0 C5.45391569 3.68087353 5.22802759 6.44355588 5.125 10.6875 C5.11597656 11.38939453 5.10695313 12.09128906 5.09765625 12.81445312 C5.07413704 14.54311525 5.03826713 16.27160145 5 18 C4.67 18 4.34 18 4 18 C4 15.03 4 12.06 4 9 C3.34 9 2.68 9 2 9 C1.34 6.03 0.68 3.06 0 0 Z " fill="#3F68C3" transform="translate(352,46)"/>
<path d="M0 0 C1.65 0 3.3 0 5 0 C4.690625 0.680625 4.38125 1.36125 4.0625 2.0625 C3.68807632 5.0169401 3.68807632 5.0169401 5.4921875 6.890625 C7.2804968 8.65738841 9.09924927 10.35521072 11 12 C10.67 12.66 10.34 13.32 10 14 C9.44570313 13.50628906 8.89140625 13.01257813 8.3203125 12.50390625 C7.59585937 11.86324219 6.87140625 11.22257812 6.125 10.5625 C5.40570313 9.92441406 4.68640625 9.28632812 3.9453125 8.62890625 C2.09249509 6.94985535 2.09249509 6.94985535 0 6 C0 4.02 0 2.04 0 0 Z " fill="#35579E" transform="translate(417,51)"/>
<path d="M0 0 C0.99 0 1.98 0 3 0 C4.27093133 1.46645923 5.53642333 2.93990126 6.7265625 4.47265625 C8.26459354 6.31734992 10.07833452 7.57654409 12 9 C12 9.66 12 10.32 12 11 C6.80546349 9.58330822 3.33817117 6.07891809 0 2 C0 1.34 0 0.68 0 0 Z " fill="#3E61AA" transform="translate(10,68)"/>
<path d="M0 0 C4.5073626 0.53027795 7.4539073 2.19611275 11 5 C11 5.99 11 6.98 11 8 C10.01 8.495 10.01 8.495 9 9 C8.67 8.34 8.34 7.68 8 7 C6.68 7 5.36 7 4 7 C3.67 6.01 3.34 5.02 3 4 C3.33 3.34 3.66 2.68 4 2 C2.68 1.67 1.36 1.34 0 1 C0 0.67 0 0.34 0 0 Z " fill="#4273D2" transform="translate(359,31)"/>
<path d="M0 0 C1.18851563 0.00902344 2.37703125 0.01804687 3.6015625 0.02734375 C4.51679687 0.03894531 5.43203125 0.05054687 6.375 0.0625 C6.705 1.0525 7.035 2.0425 7.375 3.0625 C2.095 3.0625 -3.185 3.0625 -8.625 3.0625 C-8.625 2.4025 -8.625 1.7425 -8.625 1.0625 C-5.74084117 -0.37957941 -3.20778472 -0.03144887 0 0 Z " fill="#3D5CA2" transform="translate(42.625,20.9375)"/>
<path d="M0 0 C0.66 0.33 1.32 0.66 2 1 C1.67 1.99 1.34 2.98 1 4 C0.01 4.33 -0.98 4.66 -2 5 C-2.12375 5.61875 -2.2475 6.2375 -2.375 6.875 C-3 9 -3 9 -5.4375 10.625 C-6.283125 11.07875 -7.12875 11.5325 -8 12 C-8.66 12.66 -9.32 13.32 -10 14 C-9.46823005 9.86186295 -7.22067834 7.72917682 -4.4375 4.75 C-3.61121094 3.85796875 -2.78492188 2.9659375 -1.93359375 2.046875 C-1.29550781 1.37140625 -0.65742188 0.6959375 0 0 Z " fill="#395A9B" transform="translate(18,11)"/>
<path d="M0 0 C1.953125 0.6171875 1.953125 0.6171875 4 2 C4.609375 4.8203125 4.609375 4.8203125 4.75 8.125 C4.80671875 9.22070312 4.8634375 10.31640625 4.921875 11.4453125 C4.94765625 12.28835937 4.9734375 13.13140625 5 14 C2.525 15.485 2.525 15.485 0 17 C0.16757813 16.443125 0.33515625 15.88625 0.5078125 15.3125 C2.07330885 9.44684279 1.88690123 5.76553152 0 0 Z " fill="#35528B" transform="translate(118,48)"/>
<path d="M0 0 C0.99 0.33 1.98 0.66 3 1 C-6.22551253 7.51936219 -6.22551253 7.51936219 -12 9 C-12.33 8.34 -12.66 7.68 -13 7 C-12.01 7 -11.02 7 -10 7 C-10 6.34 -10 5.68 -10 5 C-8.35 5 -6.7 5 -5 5 C-4.67 4.01 -4.34 3.02 -4 2 C-2.68 2 -1.36 2 0 2 C0 1.34 0 0.68 0 0 Z " fill="#3A59A0" transform="translate(65,75)"/>
<path d="M0 0 C0 0.66 0 1.32 0 2 C0.66 2.33 1.32 2.66 2 3 C0.02 3.99 0.02 3.99 -2 5 C-2.33 4.01 -2.66 3.02 -3 2 C-7.95 1.67 -12.9 1.34 -18 1 C-18 0.67 -18 0.34 -18 0 C-15.3753399 -0.19430855 -12.75053235 -0.38073238 -10.125 -0.5625 C-9.00544922 -0.64661133 -9.00544922 -0.64661133 -7.86328125 -0.73242188 C-2.2265625 -1.11328125 -2.2265625 -1.11328125 0 0 Z " fill="#4363A8" transform="translate(169,31)"/>
<path d="M0 0 C2.29225435 0.11371497 4.58382388 0.24130964 6.875 0.375 C8.15117188 0.44460937 9.42734375 0.51421875 10.7421875 0.5859375 C14 1 14 1 16 3 C9.86090397 4.43680971 5.79622721 3.32637691 0 1 C0 0.67 0 0.34 0 0 Z " fill="#3A5BA0" transform="translate(95,81)"/>
<path d="M0 0 C3.37909451 -0.30719041 5.40357459 -0.34529892 8.375 1.375 C10.86963042 5.4047876 10.31735888 9.38066514 10 14 C9.67 14 9.34 14 9 14 C8.67 10.7 8.34 7.4 8 4 C7.34 4 6.68 4 6 4 C5.67 3.34 5.34 2.68 5 2 C2.47266765 1.34444881 2.47266765 1.34444881 0 1 C0 0.67 0 0.34 0 0 Z " fill="#50DC6F" transform="translate(300,2)"/>
<path d="M0 0 C0 0.33 0 0.66 0 1 C-0.63808594 1.18175781 -1.27617187 1.36351562 -1.93359375 1.55078125 C-2.75988281 1.80214844 -3.58617187 2.05351563 -4.4375 2.3125 C-5.26121094 2.55613281 -6.08492188 2.79976563 -6.93359375 3.05078125 C-7.61550781 3.36402344 -8.29742187 3.67726563 -9 4 C-9.33 4.99 -9.66 5.98 -10 7 C-10.99 6.67 -11.98 6.34 -13 6 C-11.97431136 3.29591177 -11.02736589 2.02204475 -8.75 0.1875 C-5.38129749 -1.26716699 -3.50164762 -0.89577032 0 0 Z " fill="#3CA34E" transform="translate(305,1)"/>
<path d="M0 0 C0 4.0333534 -1.60879918 5.83517538 -4 9 C-4.66 9 -5.32 9 -6 9 C-6.33 9.99 -6.66 10.98 -7 12 C-7.99 11.67 -8.98 11.34 -10 11 C-9.01 10.67 -8.02 10.34 -7 10 C-6.64570293 8.67208341 -6.31492052 7.33780191 -6 6 C-4.58984375 4.296875 -4.58984375 4.296875 -2.9375 2.75 C-2.38964844 2.22921875 -1.84179688 1.7084375 -1.27734375 1.171875 C-0.85582031 0.78515625 -0.43429687 0.3984375 0 0 Z " fill="#3E68BA" transform="translate(410,38)"/>
<path d="M0 0 C3.32368224 1.10789408 3.61563093 1.48436217 5.25 4.375 C5.60578125 4.98085938 5.9615625 5.58671875 6.328125 6.2109375 C7 8 7 8 6 11 C3.46166551 9.73083275 3.10599099 8.58375191 1.875 6.0625 C1.52179688 5.35222656 1.16859375 4.64195313 0.8046875 3.91015625 C0 2 0 2 0 0 Z " fill="#3D5BA1" transform="translate(227,33)"/>
<path d="M0 0 C6.27 0 12.54 0 19 0 C19 0.33 19 0.66 19 1 C13.06 1 7.12 1 1 1 C1 2.32 1 3.64 1 5 C0.01 4.67 -0.98 4.34 -2 4 C-1.34 2.68 -0.68 1.36 0 0 Z " fill="#243F6B" transform="translate(121,30)"/>
<path d="M0 0 C2.62187494 1.04874998 3.79371361 1.64931313 5.25 4.125 C5.4975 4.74375 5.745 5.3625 6 6 C6.66 6 7.32 6 8 6 C7.67 6.99 7.34 7.98 7 9 C4.9375 9.6875 4.9375 9.6875 3 10 C3.0928125 8.576875 3.0928125 8.576875 3.1875 7.125 C3.125625 6.09375 3.06375 5.0625 3 4 C2.01 3.34 1.02 2.68 0 2 C0 1.34 0 0.68 0 0 Z " fill="#315BA0" transform="translate(193,32)"/>
<path d="M0 0 C1.4370809 -0.05422947 2.87475462 -0.09289723 4.3125 -0.125 C5.11300781 -0.14820313 5.91351563 -0.17140625 6.73828125 -0.1953125 C9 0 9 0 12 2 C11.67 2.66 11.34 3.32 11 4 C10.01 3.34 9.02 2.68 8 2 C4.47704517 1.62521757 2.65118137 1.58872755 -0.375 3.5 C-0.91125 3.995 -1.4475 4.49 -2 5 C-2.33 4.01 -2.66 3.02 -3 2 C-2.01 2 -1.02 2 0 2 C0 1.34 0 0.68 0 0 Z " fill="#325896" transform="translate(170,44)"/>
<path d="M0 0 C-0.763125 0.7425 -1.52625 1.485 -2.3125 2.25 C-4.4393702 4.4263323 -6.2559956 6.52167796 -8 9 C-8 6.36 -8 3.72 -8 1 C-2.25 -1.125 -2.25 -1.125 0 0 Z " fill="#3B5B9F" transform="translate(34,25)"/>
<path d="M0 0 C0 0.33 0 0.66 0 1 C-1.27875 1.0825 -2.5575 1.165 -3.875 1.25 C-6.05333418 1.45869931 -6.05333418 1.45869931 -8 2 C-9.5899433 3.92064793 -9.5899433 3.92064793 -10 6 C-11.32 5.67 -12.64 5.34 -14 5 C-9.74404706 -0.49155218 -6.48540926 -0.63582444 0 0 Z " fill="#4170CB" transform="translate(425,32)"/>
<path d="M0 0 C4.43458973 1.3937282 6.87378374 3.60582235 10 7 C8.68 7 7.36 7 6 7 C6 6.34 6 5.68 6 5 C5.195625 4.731875 4.39125 4.46375 3.5625 4.1875 C2.716875 3.795625 1.87125 3.40375 1 3 C0.67 2.01 0.34 1.02 0 0 Z " fill="#365894" transform="translate(61,9)"/>
<path d="M0 0 C0.33 1.32 0.66 2.64 1 4 C-3.39453125 8.00390625 -3.39453125 8.00390625 -5 9 C-5.99 8.67 -6.98 8.34 -8 8 C-6.50260417 6.79557292 -5.00520833 5.59114583 -3.5078125 4.38671875 C-1.74707893 2.87729455 -1.74707893 2.87729455 0 0 Z " fill="#2E5088" transform="translate(57,56)"/>
<path d="M0 0 C0.33 0 0.66 0 1 0 C1.33 3.63 1.66 7.26 2 11 C1.34 10.67 0.68 10.34 0 10 C-1.29411765 2.58823529 -1.29411765 2.58823529 0 0 Z " fill="#378343" transform="translate(291,7)"/>
<path d="M0 0 C2.31 0 4.62 0 7 0 C7.66 1.32 8.32 2.64 9 4 C6.03 3.01 3.06 2.02 0 1 C0 0.67 0 0.34 0 0 Z " fill="#3D67B5" transform="translate(22,79)"/>
<path d="M0 0 C2.97 0.495 2.97 0.495 6 1 C6.33 2.65 6.66 4.3 7 6 C3.63279613 4.60667426 2.0140476 3.0210714 0 0 Z " fill="#3D69B5" transform="translate(88,75)"/>
<path d="M0 0 C1.98 1.65 3.96 3.3 6 5 C4.125 5.625 4.125 5.625 2 6 C1.34 5.34 0.68 4.68 0 4 C0 2.68 0 1.36 0 0 Z " fill="#3F64B6" transform="translate(431,68)"/>
<path d="M0 0 C3.72433382 1.2125738 7.37802806 2.50859979 11 4 C11 4.33 11 4.66 11 5 C8.3125 5.3125 8.3125 5.3125 5 5 C2.125 2.5 2.125 2.5 0 0 Z " fill="#304A8A" transform="translate(58,55)"/>
<path d="M0 0 C0.66 0.99 1.32 1.98 2 3 C1.01 3.33 0.02 3.66 -1 4 C-1.33 6.31 -1.66 8.62 -2 11 C-2.33 11 -2.66 11 -3 11 C-2.67 8.03 -2.34 5.06 -2 2 C-1.34 2 -0.68 2 0 2 C0 1.34 0 0.68 0 0 Z " fill="#487CE8" transform="translate(86,42)"/>
<path d="M0 0 C1.3921875 0.0928125 1.3921875 0.0928125 2.8125 0.1875 C2.8125 0.8475 2.8125 1.5075 2.8125 2.1875 C-1.6425 2.6825 -1.6425 2.6825 -6.1875 3.1875 C-3.1875 0.1875 -3.1875 0.1875 0 0 Z " fill="#3C5B9D" transform="translate(213.1875,28.8125)"/>
<path d="M0 0 C0 1.32 0 2.64 0 4 C-0.99 4.33 -1.98 4.66 -3 5 C-3.99 3.68 -4.98 2.36 -6 1 C-3.92446352 0.4465236 -2.15634036 0 0 0 Z " fill="#3D70CC" transform="translate(420,76)"/>
<path d="M0 0 C1.32 0.33 2.64 0.66 4 1 C4.12375 1.804375 4.2475 2.60875 4.375 3.4375 C4.684375 4.7059375 4.684375 4.7059375 5 6 C5.66 6.33 6.32 6.66 7 7 C6.01 7 5.02 7 4 7 C2.02 3.535 2.02 3.535 0 0 Z " fill="#416ABC" transform="translate(400,60)"/>
<path d="M0 0 C1.99097846 2.98646769 2.94124926 5.59687262 4 9 C2.68 8.67 1.36 8.34 0 8 C0 5.36 0 2.72 0 0 Z " fill="#305697" transform="translate(25,52)"/>
<path d="M0 0 C0.33 0.99 0.66 1.98 1 3 C1.99 2.67 2.98 2.34 4 2 C3.34 3.98 2.68 5.96 2 8 C1.34 8 0.68 8 0 8 C0 5.36 0 2.72 0 0 Z " fill="#31589A" transform="translate(338,31)"/>
<path d="M0 0 C2 1 2 1 2 1 Z " fill="#000000" transform="translate(431,9)"/>
<path d="" fill="#000000" transform="translate(0,0)"/>
<path d="" fill="#000000" transform="translate(0,0)"/>
<path d="" fill="#000000" transform="translate(0,0)"/>
<path d="" fill="#000000" transform="translate(0,0)"/>
<path d="" fill="#000000" transform="translate(0,0)"/>
<path d="" fill="#000000" transform="translate(0,0)"/>
<path d="" fill="#000000" transform="translate(0,0)"/>
<path d="" fill="#000000" transform="translate(0,0)"/>
<path d="" fill="#000000" transform="translate(0,0)"/>
<path d="" fill="#000000" transform="translate(0,0)"/>
<path d="" fill="#000000" transform="translate(0,0)"/>
<path d="" fill="#000000" transform="translate(0,0)"/>
<path d="" fill="#000000" transform="translate(0,0)"/>
<path d="" fill="#000000" transform="translate(0,0)"/>
<path d="" fill="#000000" transform="translate(0,0)"/>
<path d="" fill="#000000" transform="translate(0,0)"/>
<path d="" fill="#000000" transform="translate(0,0)"/>
<path d="" fill="#000000" transform="translate(0,0)"/>
<path d="" fill="#000000" transform="translate(0,0)"/>
<path d="" fill="#000000" transform="translate(0,0)"/>
<path d="" fill="#000000" transform="translate(0,0)"/>
<path d="" fill="#000000" transform="translate(0,0)"/>
<path d="" fill="#000000" transform="translate(0,0)"/>
<path d="" fill="#000000" transform="translate(0,0)"/>
<path d="" fill="#000000" transform="translate(0,0)"/>
<path d="" fill="#000000" transform="translate(0,0)"/>
<path d="" fill="#000000" transform="translate(0,0)"/>
<path d="" fill="#000000" transform="translate(0,0)"/>
<path d="" fill="#000000" transform="translate(0,0)"/>
<path d="" fill="#000000" transform="translate(0,0)"/>
<path d="" fill="#000000" transform="translate(0,0)"/>
<path d="" fill="#000000" transform="translate(0,0)"/>
<path d="" fill="#000000" transform="translate(0,0)"/>
<path d="" fill="#000000" transform="translate(0,0)"/>
<path d="" fill="#000000" transform="translate(0,0)"/>
<path d="" fill="#000000" transform="translate(0,0)"/>
<path d="" fill="#000000" transform="translate(0,0)"/>
<path d="" fill="#000000" transform="translate(0,0)"/>
<path d="" fill="#000000" transform="translate(0,0)"/>
<path d="" fill="#000000" transform="translate(0,0)"/>
<path d="" fill="#000000" transform="translate(0,0)"/>
<path d="" fill="#000000" transform="translate(0,0)"/>
<path d="" fill="#000000" transform="translate(0,0)"/>
<path d="" fill="#000000" transform="translate(0,0)"/>
<path d="" fill="#000000" transform="translate(0,0)"/>
<path d="" fill="#000000" transform="translate(0,0)"/>
<path d="" fill="#000000" transform="translate(0,0)"/>
<path d="" fill="#000000" transform="translate(0,0)"/>
<path d="" fill="#000000" transform="translate(0,0)"/>
<path d="" fill="#000000" transform="translate(0,0)"/>
<path d="" fill="#0000FF" transform="translate(0,0)"/>
<path d="" fill="#000000" transform="translate(0,0)"/>
<path d="" fill="#000000" transform="translate(0,0)"/>
<path d="" fill="#000000" transform="translate(0,0)"/>
<path d="" fill="#000000" transform="translate(0,0)"/>
<path d="" fill="#000000" transform="translate(0,0)"/>
<path d="" fill="#000000" transform="translate(0,0)"/>
<path d="" fill="#000000" transform="translate(0,0)"/>
<path d="" fill="#000000" transform="translate(0,0)"/>
</svg>
